<?xml version="1.0" encoding="UTF-8" standalone="no"?>
<!-- Created with Inkscape (http://www.inkscape.org/) -->

<svg
   xmlns:dc="http://purl.org/dc/elements/1.1/"
   xmlns:cc="http://creativecommons.org/ns#"
   xmlns:rdf="http://www.w3.org/1999/02/22-rdf-syntax-ns#"
   xmlns:svg="http://www.w3.org/2000/svg"
   xmlns="http://www.w3.org/2000/svg"
   xmlns:sodipodi="http://sodipodi.sourceforge.net/DTD/sodipodi-0.dtd"
   xmlns:inkscape="http://www.inkscape.org/namespaces/inkscape"
   id="svg3336"
   version="1.1"
   inkscape:version="0.91 r13725"
   xml:space="preserve"
   width="673.22498"
   height="673.22498"
   viewBox="0 0 673.22498 673.22498"
   sodipodi:docname="logo_fhi_palo_biele.svg"><metadata
     id="metadata3342"><rdf:RDF><cc:Work
         rdf:about=""><dc:format>image/svg+xml</dc:format><dc:type
           rdf:resource="http://purl.org/dc/dcmitype/StillImage" /><dc:title></dc:title></cc:Work></rdf:RDF></metadata><defs
     id="defs3340"><clipPath
       clipPathUnits="userSpaceOnUse"
       id="clipPath3352"><path
         d="M 0,5385.83 0,0 l 5385.83,0 0,5385.83 -5385.83,0 z"
         id="path3354"
         inkscape:connector-curvature="0" /></clipPath><filter
       style="color-interpolation-filters:sRGB;"
       inkscape:label="Invert"
       id="filter4340"><feColorMatrix
         values="-1 0 0 0 1 0 0 -1 0 1 0 -1 0 0 1 0.21 0.72 0.07 1 0 "
         result="color2"
         id="feColorMatrix4342" /></filter></defs><sodipodi:namedview
     pagecolor="#ffffff"
     bordercolor="#666666"
     borderopacity="1"
     objecttolerance="10"
     gridtolerance="10"
     guidetolerance="10"
     inkscape:pageopacity="0"
     inkscape:pageshadow="2"
     inkscape:window-width="1920"
     inkscape:window-height="1028"
     id="namedview3338"
     showgrid="false"
     inkscape:zoom="0.31898698"
     inkscape:cx="1501.6254"
     inkscape:cy="-50.129274"
     inkscape:window-x="-8"
     inkscape:window-y="-8"
     inkscape:window-maximized="1"
     inkscape:current-layer="g3344" /><g
     id="g3344"
     inkscape:groupmode="layer"
     inkscape:label="ink_ext_XXXXXX"
     transform="matrix(1.25,0,0,-1.25,0,673.225)"><g
       id="g3346"
       transform="scale(0.1,0.1)"
       style="filter:url(#filter4340)"><g
         id="g3348"><g
           id="g3350"
           clip-path="url(#clipPath3352)"><path
             d="m 2691.42,550.172 c 1185.92,0 2147.29,950.538 2147.29,2123.088 0,1172.55 -961.37,2123.09 -2147.29,2123.09 -1185.91,0 -2147.283,-950.54 -2147.283,-2123.09 0,-1172.55 961.373,-2123.088 2147.283,-2123.088 z"
             style="fill:none;stroke:#231f20;stroke-width:60;stroke-linecap:butt;stroke-linejoin:miter;stroke-miterlimit:4;stroke-dasharray:none;stroke-opacity:1"
             id="path3356"
             inkscape:connector-curvature="0" /><g
             id="g3358"
             transform="scale(10,10)"><text
               transform="matrix(-0.39977993,0.83328194,0.91661115,0.43976047,71.0867,161.546)"
               style="font-variant:normal;font-weight:bold;font-size:46.79623032px;font-family:'Times New Roman';-inkscape-font-specification:TimesNewRomanPS-BoldMT;writing-mode:lr-tb;fill:#231f20;fill-opacity:1;fill-rule:nonzero;stroke:none"
               id="text3360"><tspan
                 x="0"
                 y="0"
                 id="tspan3362">F</tspan></text>
<text
               transform="matrix(-0.29157353,0.86959039,0.95654842,0.32073239,60.3977,183.578)"
               style="font-variant:normal;font-weight:bold;font-size:47.15590286px;font-family:'Times New Roman';-inkscape-font-specification:TimesNewRomanPS-BoldMT;writing-mode:lr-tb;fill:#231f20;fill-opacity:1;fill-rule:nonzero;stroke:none"
               id="text3364"><tspan
                 x="0"
                 y="0"
                 id="tspan3366">A</tspan></text>
<text
               transform="matrix(-0.14486619,0.89950069,0.98945126,0.159352,50.0043,214.841)"
               style="font-variant:normal;font-weight:bold;font-size:47.47050476px;font-family:'Times New Roman';-inkscape-font-specification:TimesNewRomanPS-BoldMT;writing-mode:lr-tb;fill:#231f20;fill-opacity:1;fill-rule:nonzero;stroke:none"
               id="text3368"><tspan
                 x="0"
                 y="0"
                 id="tspan3370">K</tspan></text>
<text
               transform="matrix(-0.00581999,0.909072,0.999979,0.00640213,44.5266,249.644)"
               style="font-variant:normal;font-weight:bold;font-size:47.57480621px;font-family:'Times New Roman';-inkscape-font-specification:TimesNewRomanPS-BoldMT;writing-mode:lr-tb;fill:#231f20;fill-opacity:1;fill-rule:nonzero;stroke:none"
               id="text3372"><tspan
                 x="0"
                 y="0"
                 id="tspan3374">U</tspan></text>
<text
               transform="matrix(0.11031273,0.90354366,0.99389693,-0.1213438,44.5766,282.179)"
               style="font-variant:normal;font-weight:bold;font-size:47.51430893px;font-family:'Times New Roman';-inkscape-font-specification:TimesNewRomanPS-BoldMT;writing-mode:lr-tb;fill:#231f20;fill-opacity:1;fill-rule:nonzero;stroke:none"
               id="text3376"><tspan
                 x="0"
                 y="0"
                 id="tspan3378">L</tspan></text>
<text
               transform="matrix(0.22457492,0.88586938,0.97445683,-0.24703191,47.7598,308.166)"
               style="font-variant:normal;font-weight:bold;font-size:47.32503891px;font-family:'Times New Roman';-inkscape-font-specification:TimesNewRomanPS-BoldMT;writing-mode:lr-tb;fill:#231f20;fill-opacity:1;fill-rule:nonzero;stroke:none"
               id="text3380"><tspan
                 x="0"
                 y="0"
                 id="tspan3382">T</tspan></text>
<text
               transform="matrix(0.33541843,0.85642613,0.94206925,-0.36895977,54.3039,334.287)"
               style="font-variant:normal;font-weight:bold;font-size:47.0227623px;font-family:'Times New Roman';-inkscape-font-specification:TimesNewRomanPS-BoldMT;writing-mode:lr-tb;fill:#231f20;fill-opacity:1;fill-rule:nonzero;stroke:none"
               id="text3384"><tspan
                 x="0"
                 y="0"
                 id="tspan3386">A</tspan></text>
<text
               transform="matrix(0.50281078,0.78581603,0.86439651,-0.55309267,70.5438,372.653)"
               style="font-variant:normal;font-weight:bold;font-size:46.36021805px;font-family:'Times New Roman';-inkscape-font-specification:TimesNewRomanPS-BoldMT;writing-mode:lr-tb;fill:#231f20;fill-opacity:1;fill-rule:nonzero;stroke:none"
               id="text3388"><tspan
                 x="0"
                 y="0"
                 id="tspan3390">H</tspan></text>
<text
               transform="matrix(0.62759319,0.70776533,0.77854145,-0.69035095,89.7922,402.186)"
               style="font-variant:normal;font-weight:bold;font-size:45.72159576px;font-family:'Times New Roman';-inkscape-font-specification:TimesNewRomanPS-BoldMT;writing-mode:lr-tb;fill:#231f20;fill-opacity:1;fill-rule:nonzero;stroke:none"
               id="text3392"><tspan
                 x="0"
                 y="0"
                 id="tspan3394">O</tspan></text>
<text
               transform="matrix(0.72055494,0.60972757,0.67070085,-0.79261106,113.439,428.119)"
               style="font-variant:normal;font-weight:bold;font-size:45.81998062px;font-family:'Times New Roman';-inkscape-font-specification:TimesNewRomanPS-BoldMT;writing-mode:lr-tb;fill:#231f20;fill-opacity:1;fill-rule:nonzero;stroke:none"
               id="text3396"><tspan
                 x="0"
                 y="0"
                 id="tspan3398">S</tspan></text>
<text
               transform="matrix(0.77974267,0.51412615,0.56553723,-0.85771458,132.673,444.532)"
               style="font-variant:normal;font-weight:bold;font-size:46.30705643px;font-family:'Times New Roman';-inkscape-font-specification:TimesNewRomanPS-BoldMT;writing-mode:lr-tb;fill:#231f20;fill-opacity:1;fill-rule:nonzero;stroke:none"
               id="text3400"><tspan
                 x="0"
                 y="0"
                 id="tspan3402">P</tspan></text>
<text
               transform="matrix(0.83214425,0.40263965,0.44290402,-0.91535857,155.772,459.997)"
               style="font-variant:normal;font-weight:bold;font-size:46.78527451px;font-family:'Times New Roman';-inkscape-font-specification:TimesNewRomanPS-BoldMT;writing-mode:lr-tb;fill:#231f20;fill-opacity:1;fill-rule:nonzero;stroke:none"
               id="text3404"><tspan
                 x="0"
                 y="0"
                 id="tspan3406">O</tspan></text>
<text
               transform="matrix(0.87689184,0.26378121,0.29015983,-0.96458254,187.609,475.215)"
               style="font-variant:normal;font-weight:bold;font-size:47.23120117px;font-family:'Times New Roman';-inkscape-font-specification:TimesNewRomanPS-BoldMT;writing-mode:lr-tb;fill:#231f20;fill-opacity:1;fill-rule:nonzero;stroke:none"
               id="text3408"><tspan
                 x="0"
                 y="0"
                 id="tspan3410">D</tspan></text>
<text
               transform="matrix(0.89991876,0.14168468,0.15585345,-0.98991184,218.883,484.548)"
               style="font-variant:normal;font-weight:bold;font-size:47.47504425px;font-family:'Times New Roman';-inkscape-font-specification:TimesNewRomanPS-BoldMT;writing-mode:lr-tb;fill:#231f20;fill-opacity:1;fill-rule:nonzero;stroke:none"
               id="text3412"><tspan
                 x="0"
                 y="0"
                 id="tspan3414">Á</tspan></text>
<text
               transform="matrix(0.909074,0.00568977,0.00625875,-0.99998,251.291,489.523)"
               style="font-variant:normal;font-weight:bold;font-size:47.57481766px;font-family:'Times New Roman';-inkscape-font-specification:TimesNewRomanPS-BoldMT;writing-mode:lr-tb;fill:#231f20;fill-opacity:1;fill-rule:nonzero;stroke:none"
               id="text3416"><tspan
                 x="0"
                 y="0"
                 id="tspan3418">R</tspan></text>
<text
               transform="matrix(0.90378687,-0.10786951,-0.11865566,-0.99416506,283.8,489.515)"
               style="font-variant:normal;font-weight:bold;font-size:47.51699829px;font-family:'Times New Roman';-inkscape-font-specification:TimesNewRomanPS-BoldMT;writing-mode:lr-tb;fill:#231f20;fill-opacity:1;fill-rule:nonzero;stroke:none"
               id="text3420"><tspan
                 x="0"
                 y="0"
                 id="tspan3422">S</tspan></text>
<text
               transform="matrix(0.88453948,-0.23083368,-0.25391775,-0.97299322,309.153,486.849)"
               style="font-variant:normal;font-weight:bold;font-size:47.31105042px;font-family:'Times New Roman';-inkscape-font-specification:TimesNewRomanPS-BoldMT;writing-mode:lr-tb;fill:#231f20;fill-opacity:1;fill-rule:nonzero;stroke:none"
               id="text3424"><tspan
                 x="0"
                 y="0"
                 id="tspan3426">K</tspan></text>
<text
               transform="matrix(0.85157212,-0.35005504,-0.38506095,-0.93672913,342.974,477.771)"
               style="font-variant:normal;font-weight:bold;font-size:46.97441864px;font-family:'Times New Roman';-inkscape-font-specification:TimesNewRomanPS-BoldMT;writing-mode:lr-tb;fill:#231f20;fill-opacity:1;fill-rule:nonzero;stroke:none"
               id="text3428"><tspan
                 x="0"
                 y="0"
                 id="tspan3430">E</tspan></text>
<text
               transform="matrix(0.80996907,-0.45407088,-0.49947704,-0.89096557,370.639,465.99)"
               style="font-variant:normal;font-weight:bold;font-size:46.57735062px;font-family:'Times New Roman';-inkscape-font-specification:TimesNewRomanPS-BoldMT;writing-mode:lr-tb;fill:#231f20;fill-opacity:1;fill-rule:nonzero;stroke:none"
               id="text3432"><tspan
                 x="0"
                 y="0"
                 id="tspan3434">J</tspan></text>
<text
               transform="matrix(0.7455578,-0.57220181,-0.62942096,-0.82011285,399.664,448.531)"
               style="font-variant:normal;font-weight:bold;font-size:46.01922989px;font-family:'Times New Roman';-inkscape-font-specification:TimesNewRomanPS-BoldMT;writing-mode:lr-tb;fill:#231f20;fill-opacity:1;fill-rule:nonzero;stroke:none"
               id="text3436"><tspan
                 x="0"
                 y="0"
                 id="tspan3438">I</tspan></text>
<text
               transform="matrix(0.68678879,-0.65518593,-0.72070432,-0.75546766,414.104,437.873)"
               style="font-variant:normal;font-weight:bold;font-size:45.56551361px;font-family:'Times New Roman';-inkscape-font-specification:TimesNewRomanPS-BoldMT;writing-mode:lr-tb;fill:#231f20;fill-opacity:1;fill-rule:nonzero;stroke:none"
               id="text3440"><tspan
                 x="0"
                 y="0"
                 id="tspan3442">N</tspan></text>
<text
               transform="matrix(0.59039873,-0.73373831,-0.80711173,-0.64943767,437.435,415.148)"
               style="font-variant:normal;font-weight:bold;font-size:45.92391586px;font-family:'Times New Roman';-inkscape-font-specification:TimesNewRomanPS-BoldMT;writing-mode:lr-tb;fill:#231f20;fill-opacity:1;fill-rule:nonzero;stroke:none"
               id="text3444"><tspan
                 x="0"
                 y="0"
                 id="tspan3446">F</tspan></text>
<text
               transform="matrix(0.47249825,-0.80121102,-0.88133161,-0.51974838,454.988,393.427)"
               style="font-variant:normal;font-weight:bold;font-size:46.497509px;font-family:'Times New Roman';-inkscape-font-specification:TimesNewRomanPS-BoldMT;writing-mode:lr-tb;fill:#231f20;fill-opacity:1;fill-rule:nonzero;stroke:none"
               id="text3448"><tspan
                 x="0"
                 y="0"
                 id="tspan3450">O</tspan></text>
<text
               transform="matrix(0.33541843,-0.85642613,-0.94206925,-0.36895977,472.762,362.932)"
               style="font-variant:normal;font-weight:bold;font-size:47.0227623px;font-family:'Times New Roman';-inkscape-font-specification:TimesNewRomanPS-BoldMT;writing-mode:lr-tb;fill:#231f20;fill-opacity:1;fill-rule:nonzero;stroke:none"
               id="text3452"><tspan
                 x="0"
                 y="0"
                 id="tspan3454">R</tspan></text>
<text
               transform="matrix(0.19059189,-0.89242687,-0.98166936,-0.20965118,484.991,332.324)"
               style="font-variant:normal;font-weight:bold;font-size:47.39455414px;font-family:'Times New Roman';-inkscape-font-specification:TimesNewRomanPS-BoldMT;writing-mode:lr-tb;fill:#231f20;fill-opacity:1;fill-rule:nonzero;stroke:none"
               id="text3456"><tspan
                 x="0"
                 y="0"
                 id="tspan3458">M</tspan></text>
<text
               transform="matrix(0.04073969,-0.908337,-0.99916979,-0.04481329,493.048,290.596)"
               style="font-variant:normal;font-weight:bold;font-size:47.56672668px;font-family:'Times New Roman';-inkscape-font-specification:TimesNewRomanPS-BoldMT;writing-mode:lr-tb;fill:#231f20;fill-opacity:1;fill-rule:nonzero;stroke:none"
               id="text3460"><tspan
                 x="0"
                 y="0"
                 id="tspan3462">A</tspan></text>
<text
               transform="matrix(-0.08717886,-0.90562952,-0.99619268,0.0958965,494.304,261.144)"
               style="font-variant:normal;font-weight:bold;font-size:47.53709793px;font-family:'Times New Roman';-inkscape-font-specification:TimesNewRomanPS-BoldMT;writing-mode:lr-tb;fill:#231f20;fill-opacity:1;fill-rule:nonzero;stroke:none"
               id="text3464"><tspan
                 x="0"
                 y="0"
                 id="tspan3466">T</tspan></text>
<text
               transform="matrix(-0.17920215,-0.89437425,-0.98381227,0.19712226,491.092,231.449)"
               style="font-variant:normal;font-weight:bold;font-size:47.41540527px;font-family:'Times New Roman';-inkscape-font-specification:TimesNewRomanPS-BoldMT;writing-mode:lr-tb;fill:#231f20;fill-opacity:1;fill-rule:nonzero;stroke:none"
               id="text3468"><tspan
                 x="0"
                 y="0"
                 id="tspan3470">I</tspan></text>
<text
               transform="matrix(-0.29157353,-0.86959039,-0.95654842,0.32073239,487.943,213.567)"
               style="font-variant:normal;font-weight:bold;font-size:47.15590286px;font-family:'Times New Roman';-inkscape-font-specification:TimesNewRomanPS-BoldMT;writing-mode:lr-tb;fill:#231f20;fill-opacity:1;fill-rule:nonzero;stroke:none"
               id="text3472"><tspan
                 x="0"
                 y="0"
                 id="tspan3474">K</tspan></text>
<text
               transform="matrix(-0.42083038,-0.82467241,-0.90713935,0.46291168,476.523,180.307)"
               style="font-variant:normal;font-weight:bold;font-size:46.71430588px;font-family:'Times New Roman';-inkscape-font-specification:TimesNewRomanPS-BoldMT;writing-mode:lr-tb;fill:#231f20;fill-opacity:1;fill-rule:nonzero;stroke:none"
               id="text3476"><tspan
                 x="0"
                 y="0"
                 id="tspan3478">Y</tspan></text>
</g><path
             d="m 4372.14,2075.35 c -56.7,0 -101.72,7.98 -135.04,23.96 -33.34,15.97 -55.72,34.59 -67.14,55.9 -11.45,21.3 -17.16,74.53 -17.16,159.74 l 0,1096.03 c 0,83.56 5.45,135.17 16.41,154.83 14.92,27.83 35.3,47.49 61.18,58.98 35.81,17.2 83.05,25.8 141.75,25.8 l 6.52,0 0,45.46 -1179.2,0 0,-45.46 -3.59,0 c 56.7,0 101.7,-7.99 135.04,-23.96 33.32,-15.98 55.44,-34.62 66.4,-55.91 10.93,-21.31 16.41,-74.55 16.41,-159.74 l 2.03,-455.86 560.48,0 0,-124.34 c 0,0 -226.77,27.06 -226.77,-119.82 0,-146.89 0,-681.35 0,-681.35 l 629.2,0.27 0,45.47 -6.52,0"
             style="fill:#231f20;fill-opacity:1;fill-rule:nonzero;stroke:none"
             id="path3480"
             inkscape:connector-curvature="0" /><path
             d="m 1181.75,995.641 c 17.63,-15.653 28.75,-27.309 33.39,-34.961 8.02,-13.02 11.87,-25.692 11.56,-37.989 -0.32,-12.3 -6.08,-27.929 -17.29,-46.871 l 6.52,-5.8 59.46,65.472 -194.88,173.058 -5.49,-6.04 7.73,-6.86 c 7.55,-6.71 12.12,-13.52 13.7,-20.43 1.22,-4.81 0.66,-9.63 -1.65,-14.46 -1.5,-2.79 -6.8,-9.19 -15.89,-19.21 L 946.652,895.93 c -10.082,-11.11 -16.937,-17.399 -20.57,-18.899 -4.965,-2.269 -9.625,-2.851 -13.984,-1.73 -6.196,1.371 -12.672,5.058 -19.422,11.051 l -7.727,6.859 -5.488,-6.039 201.229,-178.703 74.38,61.062 -6.35,5.641 c -23.52,-14.512 -46.18,-20.731 -67.98,-18.672 -21.81,2.059 -43.59,12.75 -65.33,32.059 l -13.91,12.363 c -6.641,5.887 -10.656,11.027 -12.051,15.418 -1.398,4.379 -1.402,8.422 -0.015,12.101 1.379,3.688 7.609,11.629 18.676,23.821 l 56.64,62.359 c 11.1,-9.859 18.31,-18.769 21.63,-26.73 3.32,-7.961 3.52,-17.922 0.62,-29.891 -2.92,-11.969 -9.41,-24.871 -19.5,-38.719 l 6.52,-5.789 105.27,115.906 -6.53,5.801 c -17.45,-15.57 -33.49,-24.82 -48.14,-27.738 -14.64,-2.922 -29.35,2.18 -44.11,15.289 l -4.64,4.121 81.84,90.119 24.04,-21.349 z m 94.12,-74.969 c 11,-7.274 17.82,-13.301 20.47,-18.102 2.64,-4.8 3.59,-9.48 2.86,-14.039 -0.73,-4.562 -5.98,-13.902 -15.75,-28.019 L 1200.23,740.27 c -14.12,-20.411 -21.93,-38.969 -23.43,-55.68 -1.5,-16.711 3.4,-34.559 14.68,-53.539 8.27,-13.922 23.57,-28.442 45.91,-43.571 26.79,-18.121 51.65,-27.058 74.58,-26.8 22.92,0.261 40.81,5.441 53.67,15.531 12.85,10.09 29.26,29.559 49.23,58.41 l 64.54,93.258 c 6.94,10.019 12.57,16.402 16.89,19.152 6,4.09 12.37,5.899 19.12,5.41 6.75,-0.492 13.74,-3.179 20.98,-8.082 l 5.33,-3.609 4.64,6.699 -89.32,60.449 -4.64,-6.699 c 10.41,-7.051 17.51,-13.89 21.31,-20.539 2.42,-4.301 3.21,-9.621 2.37,-15.961 -0.85,-6.34 -5.07,-15.008 -12.67,-25.988 L 1394.11,638.57 c -18.04,-26.082 -33.15,-42.711 -45.3,-49.91 -12.16,-7.191 -25.23,-10.449 -39.2,-9.769 -13.98,0.691 -27.95,5.757 -41.91,15.211 -12.19,8.25 -20.65,17.429 -25.39,27.546 -4.75,10.122 -6.4,19.934 -4.96,29.411 1.44,9.492 9.76,25.222 24.97,47.191 l 83.21,120.242 c 9.69,13.996 16.54,22.219 20.55,24.649 4.01,2.418 8.58,3.371 13.7,2.82 5.13,-0.539 12.7,-4.211 22.74,-10.992 l 6.66,-4.52 4.64,6.699 -133.31,90.223 -4.64,-6.699 z m 313.89,-533.981 134.86,115.008 c 16.15,13.793 27.03,21.563 32.63,23.301 5.61,1.75 11.66,1.582 18.15,-0.5 l 3.52,7.34 -63.8,29.93 -3.52,-7.34 c 7.8,-3.981 12.64,-7.989 14.53,-12.039 1.89,-4.039 1.86,-8.11 -0.11,-12.211 -3.42,-7.141 -12.94,-17.571 -28.55,-31.289 l -54.46,-48.051 1.27,84.652 c 0.35,16.36 1.7,26.969 4.05,31.867 1.9,3.961 5.21,6.61 9.95,7.961 3.44,1.141 8.42,0.172 14.96,-2.89 l 3.52,7.332 -103.63,48.609 -3.52,-7.332 c 5.68,-4.117 9.3,-8.648 10.85,-13.59 2.23,-6.707 3.15,-20.59 2.77,-41.617 l -3.27,-174.543 9.8,-4.598 z m 516.83,14.188 c 13.74,7.562 22.72,18.203 26.94,31.922 4.01,13.008 3.66,26.531 -1.03,40.558 -4.69,14.032 -13.28,26.09 -25.77,36.192 -12.49,10.097 -35.88,20.32 -70.18,30.64 l -143.5,43.168 -2.39,-7.769 c 13.69,-4.11 22.66,-8.121 26.94,-12 4.27,-3.891 6.79,-8.121 7.55,-12.711 0.76,-4.578 -1.23,-14.578 -5.97,-29.969 l -56.84,-184.738 c -4.73,-15.402 -8.7,-24.75 -11.89,-28.07 -3.19,-3.321 -7.63,-5.473 -13.31,-6.43 -5.69,-0.973 -15.45,0.629 -29.28,4.789 l -2.39,-7.762 152.11,-45.769 c 42.39,-12.75 77.31,-14.008 104.74,-3.758 22.41,8.547 36.91,23.527 43.5,44.937 6.24,20.289 3.08,39.289 -9.49,56.993 -8.72,12.398 -26.32,26.039 -52.79,40.878 28.29,-1.628 49.3,1.34 63.05,8.899 z M 1999.41,533.93 c 21.53,-6.328 36.51,-13.051 44.93,-20.168 8.43,-7.121 14.01,-15.492 16.76,-25.11 2.75,-9.621 2.19,-20.73 -1.69,-33.332 -3.87,-12.59 -9.71,-22.148 -17.5,-28.672 -7.8,-6.527 -17.35,-10.527 -28.67,-12.019 -11.31,-1.488 -27.42,0.91 -48.32,7.203 l 34.49,112.098 z m 9.38,-149.84 c 10.04,-7.61 16.67,-17.668 19.9,-30.188 3.22,-12.523 2.79,-25.422 -1.3,-38.722 -3.57,-11.61 -9.46,-21.348 -17.67,-29.2 -8.2,-7.851 -18.04,-12.769 -29.5,-14.75 -11.46,-1.98 -23.08,-1.191 -34.86,2.352 -7.94,2.387 -13.35,6.117 -16.21,11.188 -2.87,5.062 -3.14,11.371 -0.81,18.929 l 3.45,10.43 28.09,91.32 c 22.57,-6.64 38.87,-13.758 48.91,-21.359 z m 250.16,-63.258 76.12,-150.562 97.11,-16.54 1.39,8.012 c -8.11,1.817 -14.88,5.5 -20.32,11.028 -3.54,3.859 -9.05,13.039 -16.52,27.519 l -56.86,111.883 c 19.58,1.269 35.38,5.48 47.39,12.637 18.84,11.343 30.14,27.832 33.9,49.453 3.09,17.73 0.32,34.117 -8.3,49.168 -8.62,15.05 -21.14,26.5 -37.57,34.351 -16.44,7.84 -43.3,14.938 -80.6,21.289 l -143.28,24.391 -1.39,-8 c 14.1,-2.402 23.51,-5.27 28.24,-8.602 4.73,-3.328 7.76,-7.218 9.09,-11.679 1.33,-4.45 0.62,-14.61 -2.14,-30.469 L 2152.08,254.41 c -2.76,-15.859 -5.52,-25.629 -8.27,-29.32 -2.75,-3.688 -6.88,-6.36 -12.4,-8.02 -5.52,-1.66 -15.4,-1.269 -29.65,1.149 l -1.4,-8 157.84,-26.867 1.39,8 c -14.1,2.398 -23.52,5.269 -28.24,8.597 -4.73,3.321 -7.76,7.223 -9.09,11.68 -1.33,4.453 -0.62,14.613 2.14,30.473 l 14.31,82.168 20.24,-3.438 z m 29.13,143.109 c 24.41,-4.16 41.18,-12.511 50.32,-25.039 9.13,-12.55 11.75,-29.992 7.86,-52.332 -2.68,-15.429 -7.86,-27.429 -15.51,-35.988 -7.66,-8.57 -17.04,-13.801 -28.14,-15.703 -11.1,-1.887 -27.19,-1.047 -48.27,2.543 l -12.96,2.207 22.36,128.453 24.34,-4.141 z M 2637.5,194.68 c 3.87,-9.828 5.93,-15.41 6.18,-16.739 0.8,-2.82 1.14,-5.543 1.02,-8.171 -0.2,-4.391 -2.04,-7.68 -5.53,-9.86 -5.06,-3 -13.66,-4.238 -25.8,-3.699 l -6.23,0.269 -0.36,-8.109 151.24,-6.629 0.36,8.11 c -9.5,1.14 -16.76,4.097 -21.78,8.859 -6.65,6.289 -14.83,21.219 -24.55,44.789 l -101.81,248.711 -4.38,0.191 -122.45,-232.293 c -11.62,-22.187 -21.21,-36.738 -28.76,-43.66 -7.55,-6.91 -16.97,-10.929 -28.26,-12.051 l -0.36,-8.109 103.98,-4.559 0.36,8.122 c -16.24,1.878 -26.38,4.078 -30.43,6.597 -6.89,4.262 -10.15,10.551 -9.78,18.883 0.29,6.277 2.79,14.16 7.53,23.609 l 14.44,28.36 110.43,-4.84 14.94,-37.781 z m -116.57,58.492 52.54,100.269 41.98,-104.41 -94.52,4.141 z m 198.02,187.949 5.67,-80.34 8.75,0.598 c 1.98,22.141 9.23,39.57 21.75,52.312 8.92,9.118 23.89,14.411 44.92,15.86 l 22.56,1.551 16.15,-228.961 c 1.05,-14.891 0.85,-24.141 -0.59,-27.762 -1.95,-5.117 -4.85,-8.84 -8.7,-11.16 -5.31,-3.438 -12.49,-5.481 -21.54,-6.098 l -10.36,-0.719 0.57,-8.101 163.45,11.269 -0.57,8.102 -10.36,-0.711 c -8.9,-0.609 -16.02,0.32 -21.37,2.82 -5.34,2.489 -9.03,5.571 -11.06,9.239 -2.03,3.671 -3.58,13.101 -4.65,28.281 l -16.15,228.961 23.25,1.609 c 14.58,1 24.88,0.391 30.9,-1.832 10.77,-4.098 19.44,-9.988 26,-17.68 6.56,-7.679 12.94,-20.629 19.16,-38.82 l 8.29,0.57 -5.67,80.34 -280.4,-19.328 z m 472.07,-238.23 c -8.64,-1.469 -15.75,-1.231 -21.32,0.711 -5.57,1.949 -9.55,4.648 -11.95,8.097 -2.39,3.453 -4.89,12.672 -7.51,27.672 l -33.58,192.891 c -2.56,14.707 -3.3,23.929 -2.24,27.679 1.42,5.278 3.93,9.27 7.52,11.957 4.93,3.961 11.87,6.704 20.82,8.223 l 10.23,1.738 -1.39,8.012 -161.25,-27.449 1.39,-8.012 10.24,1.75 c 8.64,1.469 15.74,1.231 21.31,-0.719 5.57,-1.941 9.51,-4.652 11.84,-8.109 2.32,-3.473 4.78,-12.703 7.39,-27.691 l 33.58,-192.899 c 2.56,-14.703 3.31,-23.922 2.24,-27.672 -1.27,-5.261 -3.7,-9.238 -7.29,-11.929 -4.93,-3.95 -11.87,-6.692 -20.81,-8.219 l -10.24,-1.742 1.4,-8 161.24,27.449 -1.39,8 -10.23,-1.738 z m 148.05,340.941 c 0.37,-9.133 -0.26,-15.121 -1.89,-17.961 -1.63,-2.851 -4.37,-4.781 -8.24,-5.789 -4.02,-1.043 -11.66,-0.582 -22.93,1.398 -11.27,1.969 -20.62,2.899 -28.07,2.77 -9.82,-0.148 -19.65,-1.5 -29.46,-4.059 -26.93,-7.031 -47.09,-20.921 -60.49,-41.66 -13.4,-20.75 -17.04,-42.57 -10.92,-65.492 3.59,-13.437 10.11,-24.898 19.56,-34.379 9.45,-9.488 21.41,-17.191 35.88,-23.09 14.46,-5.91 37.17,-11.711 68.13,-17.39 22.09,-4.078 37.76,-7.961 47.03,-11.668 9.26,-3.711 16.64,-8.25 22.13,-13.633 5.49,-5.367 9.15,-11.457 10.96,-18.25 3.06,-11.449 0.79,-22.789 -6.8,-34 -7.59,-11.207 -19.72,-18.988 -36.37,-23.328 -21.57,-5.629 -43.84,-2.86 -66.79,8.32 -22.95,11.18 -41.78,31.199 -56.48,60.039 l -8.25,-2.148 28.99,-108.633 8.26,2.152 c 1.13,6.5 3.47,11.719 7.03,15.68 3.56,3.949 7.27,6.437 11.14,7.449 4.61,1.199 10.86,1.32 18.76,0.36 14.15,-1.758 25.71,-2.45 34.68,-2.071 8.97,0.371 18.22,1.801 27.74,4.289 30.34,7.922 53.06,23.114 68.14,45.582 15.09,22.469 19.42,45.731 13,69.782 -5.05,18.949 -15.65,34.187 -31.77,45.718 -16.27,11.481 -44.32,20.879 -84.14,28.192 -28.46,5.277 -46.81,9.347 -55.05,12.187 -11.25,4.02 -19.93,8.793 -26.01,14.313 -4.45,4.14 -7.52,9.386 -9.22,15.75 -2.68,10.047 -0.62,20.07 6.17,30.097 6.79,10.012 17.78,17 32.95,20.961 19.64,5.129 39.85,2.578 60.64,-7.66 20.79,-10.23 36.55,-26.808 47.28,-49.73 l 9.15,2.39 -28.05,95.262 -6.69,-1.75 z m 351.69,-85.492 c 1.8,-24.41 1.13,-43.649 -2.03,-57.719 -3.15,-14.07 -8.87,-25.68 -17.17,-34.82 -8.3,-9.141 -20.2,-16.672 -35.7,-22.602 l -24.31,-9.32 c -13.78,-5.27 -22.7,-7.981 -26.76,-8.129 -5.78,-0.008 -10.28,1.602 -13.52,4.832 -3.25,3.227 -7.65,11.93 -13.2,26.117 L 3488.84,533.5 c -5.45,13.91 -8.03,22.809 -7.73,26.691 0.33,5.457 1.99,9.86 4.97,13.2 4.05,4.839 10.3,8.879 18.76,12.121 l 12.7,4.867 -2.96,7.57 -155.59,-59.578 2.96,-7.582 9.69,3.711 c 8.17,3.129 15.18,4.289 21.03,3.469 5.85,-0.821 10.26,-2.699 13.23,-5.637 2.96,-2.953 7.22,-11.512 12.78,-25.703 l 71.47,-182.52 c 5.45,-13.918 8.03,-22.808 7.73,-26.687 -0.19,-5.41 -1.78,-9.781 -4.76,-13.121 -4.04,-4.84 -10.3,-8.891 -18.76,-12.129 l -9.68,-3.703 2.96,-7.578 259.1,99.218 -27.16,101.61 -8.82,-3.379 z m 224.51,50.109 c 8.32,-6.597 12.93,-10.41 13.82,-11.437 2.11,-2.051 3.79,-4.242 5.01,-6.571 2.05,-3.902 2.12,-7.66 0.21,-11.269 -2.87,-5.113 -9.7,-10.434 -20.48,-15.973 l -5.53,-2.84 3.79,-7.211 134.32,69.063 -3.79,7.199 c -8.8,-3.699 -16.58,-4.738 -23.34,-3.101 -8.94,2.171 -23.58,11.043 -43.91,26.64 l -213.95,165.02 -3.89,-2 11.44,-261.707 c 1.16,-24.961 0.22,-42.301 -2.82,-52.02 -3.04,-9.73 -9.16,-17.871 -18.37,-24.41 l 3.78,-7.211 92.35,47.481 -3.79,7.199 c -15.02,-6.399 -24.91,-9.512 -29.69,-9.332 -8.12,0.281 -14.13,4.121 -18.02,11.519 -2.93,5.571 -4.74,13.633 -5.42,24.16 l -1.84,31.704 98.08,50.429 32.04,-25.332 z m -130.53,-7 -5.21,112.813 89.16,-69.66 -83.95,-43.153 z m 231.13,367.403 4.64,-6.704 c 9.01,6.102 16.96,9.973 23.84,11.622 4.93,1.21 9.38,1.121 13.33,-0.278 3.96,-1.41 7.19,-3.922 9.69,-7.543 2.18,-3.14 4.11,-7.418 5.8,-12.828 1.7,-5.41 4.05,-16.762 7.07,-34.039 l 24.27,-143.371 -139.63,84.98 c -14.78,8.969 -23.7,14.579 -26.76,16.86 -3.06,2.258 -5.35,4.488 -6.85,6.66 -2.42,3.5 -2.8,7.141 -1.13,10.93 2.22,5.41 8.92,11.89 20.09,19.449 l 4.19,2.84 -4.63,6.699 -123.79,-83.777 4.63,-6.7 c 10.78,5.7 19.41,7.727 25.86,6.067 6.46,-1.66 23.17,-10.637 50.13,-26.969 l 223.65,-135.281 6.29,4.261 -40.9,247.79 c -4.92,29.472 -6.8,49.019 -5.64,58.671 1.76,13.071 6.84,23.508 15.24,31.321 l -4.64,6.699 -84.75,-57.359 z m 184.19,125.867 c 17.63,15.651 30.53,25.341 38.72,29.081 13.96,6.49 27.11,8.92 39.44,7.3 12.34,-1.63 27.42,-8.98 45.28,-22.03 l 6.52,5.8 -59.45,65.47 -194.88,-173.07 5.48,-6.04 7.73,6.86 c 7.56,6.711 14.89,10.469 22.01,11.289 4.97,0.672 9.75,-0.387 14.36,-3.18 2.65,-1.769 8.52,-7.668 17.61,-17.679 l 132.25,-145.629 c 10.08,-11.102 15.68,-18.52 16.8,-22.25 1.75,-5.121 1.84,-9.77 0.24,-13.93 -2.04,-5.949 -6.44,-11.922 -13.19,-17.922 l -7.73,-6.859 5.49,-6.039 201.23,178.711 -53.43,79.66 -6.35,-5.641 c 12.06,-24.672 15.89,-47.621 11.49,-68.832 -4.41,-21.219 -17.49,-41.488 -39.24,-60.797 l -13.91,-12.351 c -6.64,-5.899 -12.23,-9.301 -16.79,-10.2 -4.56,-0.902 -8.62,-0.48 -12.18,1.278 -3.56,1.75 -10.87,8.73 -21.94,20.922 L 4268.98,871 c 11.1,9.859 20.84,16 29.2,18.41 8.35,2.41 18.39,1.539 30.11,-2.601 11.73,-4.137 24.01,-11.907 36.85,-23.317 l 6.52,5.797 -105.27,115.91 -6.52,-5.789 c 13.78,-18.828 21.36,-35.601 22.73,-50.308 1.36,-14.711 -5.33,-28.622 -20.1,-41.731 l -4.64,-4.121 -81.84,90.121 24.04,21.348"
             style="fill:#231f20;fill-opacity:1;fill-rule:nonzero;stroke:none"
             id="path3482"
             inkscape:connector-curvature="0" /><path
             d="m 2983.46,2051.52 0,-516.07 c 0,-83.55 -5.62,-135.16 -16.82,-154.82 -15.29,-27.86 -36.19,-47.52 -62.69,-58.98 -35.69,-17.2 -50.89,-25.8 -50.89,-25.8 l 0,-45.47 1082.5,0 0,45.47 -6.66,0 c -58.1,0 -104.5,7.98 -139.14,23.96 -34.66,15.97 -57.59,34.59 -68.8,55.91 -11.23,21.29 -16.82,74.53 -16.82,159.73 l 0,1096.03 c 0,83.56 5.59,135.17 16.82,154.83 15.29,27.83 36.17,47.49 62.69,58.97 35.67,17.21 84.09,25.81 145.25,25.81 l 6.66,0 0,45.46 -1082.5,0 0,-45.46 c 0,0 10.11,-7.99 44.78,-23.96 34.64,-15.98 57.57,-34.62 68.8,-55.91 11.2,-21.31 16.82,-74.55 16.82,-159.74 l 0,-421.9 -439.41,0 0,421.9 c 0,83.56 5.59,135.17 16.82,154.83 15.29,27.83 36.17,47.49 62.69,58.97 36.69,17.21 82.72,25.81 82.72,25.81 l 0,45.46 -251.73,0.56 0,-344.67 c 0,0 -66.36,0 -127.56,0 -18.17,299.57 -180.39,343.38 -180.39,343.38 l -150.75,0 c 0,0 0.67,-508.88 1.29,-575.95 1.29,-140.44 283.46,-107.58 283.46,-107.58 l 0,-126.14 -432.93,0 -4.1,-570.7 c 0,-83.55 -5.61,-135.16 -16.82,-154.82 -14.28,-27.86 -34.66,-47.52 -61.15,-58.98 -36.7,-17.2 -85.12,-25.8 -145.25,-25.8 l 1.91,0 0,-45.47 1084.02,0 0,45.47 c 0,0 -41.7,7.98 -75.84,23.96 -34.16,15.97 -57.1,34.59 -68.8,55.91 -11.73,21.29 -17.59,74.53 -17.59,159.73 l 0,516.07 439.41,0"
             style="fill:#231f20;fill-opacity:1;fill-rule:nonzero;stroke:none"
             id="path3484"
             inkscape:connector-curvature="0" /><path
             d="m 2008.83,3697.74 c 89.49,45.99 261.33,63.69 471.35,-143.9 102.14,-112.28 152.74,-141.53 279.7,-396.3 l 40.1,1.51 c 0,0 -75.18,566.99 -179,814.21 -18.61,0.47 -22.91,1.04 -38.66,1.6 -13.97,-56.48 -103.57,-159.18 -207.15,-156.82 -262.5,5.98 -1353.78,-5.07 -1353.78,-5.07 l 0,-45.46 67.13,0 c 56.69,0 155.41,-76.85 150.64,-246.69 l 9.54,-1094.54 c 4.77,-146.25 -98.84,-226.46 -157.51,-226.46 l -69.8,-7.57 0,-45.47 1219.33,0 0,45.47 -67.13,0 c -56.68,0 -101.7,7.98 -135,23.96 -33.34,15.97 -55.71,34.59 -67.14,55.9 -11.44,21.3 -17.15,74.54 -17.15,159.74 l 0,569.85 58.18,0 c 106.41,0 110.7,-25.19 194.75,-75.57 84.03,-50.37 135.5,-154.63 154.4,-312.71 l 52.21,0 0,836.78 -52.21,0 c -11.93,-89.3 -37.55,-160.16 -76.83,-212.58 -39.3,-52.43 -87.27,-89.7 -143.95,-111.81 -56.69,-22.12 -38.86,-33.18 -128.37,-33.18 l -58.18,0 -2.03,470.65 c 0,0 6.42,108.69 56.56,134.46"
             style="fill:#231f20;fill-opacity:1;fill-rule:nonzero;stroke:none"
             id="path3486"
             inkscape:connector-curvature="0" /></g></g></g></g></svg>